# This file uses centimeters as units for non-parametric coordinates.

mtllib RockBoy1_V01.mtl
g default
v -7.193561 0.011795 0.783356
v -8.003963 0.011795 0.783356
v -7.193561 -0.239914 0.783356
v -8.003963 -0.239914 0.783356
v -7.193561 -0.239914 -0.783356
v -8.003963 -0.239914 -0.783356
v -7.193561 0.011795 -0.783356
v -8.003963 0.011795 -0.783356
v -7.086965 -0.279313 -0.000000
v -8.110559 -0.122192 -0.989432
v -7.598762 0.047043 -0.989432
v -7.086965 -0.122192 -0.989432
v -8.110559 0.047043 -0.000000
v -7.086965 0.047043 -0.000000
v -7.598762 0.047043 0.989432
v -8.110559 -0.122192 0.989432
v -7.598762 -0.279313 0.989432
v -7.086965 -0.122192 0.989432
v -8.110559 -0.279313 -0.000000
v -7.598762 -0.279313 -0.989432
v -7.598762 -0.122192 1.351289
v -7.598762 -0.279313 -0.000000
v -7.598762 -0.122192 -1.351289
v -7.598762 0.108936 -0.000000
v -8.297734 -0.122192 -0.000000
v -6.899790 -0.122192 -0.000000
v -7.339065 -0.036318 1.175034
v -7.858459 -0.036318 1.175034
v -7.858459 -0.208065 1.175034
v -7.339065 -0.208065 1.175034
v -7.339065 -0.272877 0.502060
v -7.858459 -0.272877 0.502060
v -7.858459 -0.272877 -0.502060
v -7.339065 -0.272877 -0.502060
v -7.339065 -0.208065 -1.175034
v -7.858459 -0.208065 -1.175034
v -7.858459 -0.036318 -1.175034
v -7.339065 -0.036318 -1.175034
v -7.339065 0.078789 -0.502060
v -7.858459 0.078789 -0.502060
v -7.858459 0.078789 0.502060
v -7.339065 0.078789 0.502060
v -8.206564 -0.036318 0.502060
v -8.206564 -0.036318 -0.502060
v -8.206564 -0.208065 -0.502060
v -8.206564 -0.208065 0.502060
v -6.990960 -0.036318 -0.502060
v -6.990960 -0.036318 0.502060
v -6.990960 -0.208065 0.502060
v -6.990960 -0.208065 -0.502060
v -7.598762 -0.029923 1.260491
v -7.877798 -0.122192 1.260491
v -7.598762 -0.214460 1.260491
v -7.319726 -0.122192 1.260490
v -7.598762 -0.285749 0.539447
v -7.877798 -0.285749 -0.000000
v -7.598762 -0.285749 -0.539447
v -7.319726 -0.285749 -0.000000
v -7.598762 -0.214460 -1.260491
v -7.877798 -0.122192 -1.260491
v -7.598762 -0.029923 -1.260491
v -7.319726 -0.122192 -1.260491
v -7.598762 0.093406 -0.539447
v -7.877798 0.093406 -0.000000
v -7.598762 0.093405 0.539447
v -7.319726 0.093405 0.000000
v -8.250768 -0.029923 -0.000000
v -8.250768 -0.122192 -0.539447
v -8.250768 -0.214460 -0.000000
v -8.250768 -0.122192 0.539447
v -6.946756 -0.029923 -0.000000
v -6.946756 -0.122192 0.539447
v -6.946756 -0.214460 0.000000
v -6.946756 -0.122192 -0.539447
v -7.358404 0.035395 0.921333
v -7.839119 0.035395 0.921333
v -8.075334 -0.042713 0.921333
v -8.075333 -0.201186 0.921333
v -7.839119 -0.264681 0.921333
v -7.358404 -0.264681 0.921333
v -7.122190 -0.201186 0.921333
v -7.122190 -0.042713 0.921333
v -8.075334 -0.264681 0.464672
v -8.075333 -0.264681 -0.464672
v -7.839119 -0.264681 -0.921333
v -7.358404 -0.264681 -0.921333
v -7.122190 -0.264681 -0.464672
v -7.122190 -0.264681 0.464672
v -8.075333 -0.201186 -0.921333
v -8.075333 -0.042713 -0.921333
v -7.839119 0.035395 -0.921333
v -7.358404 0.035395 -0.921333
v -7.122190 -0.042713 -0.921333
v -7.122190 -0.201186 -0.921333
v -8.075334 0.035395 -0.464672
v -8.075333 0.035395 0.464672
v -7.122190 0.035395 0.464672
v -7.122190 0.035395 -0.464672
vt 0.251159 0.383948
vt 0.249047 0.298170
vt 0.279524 0.298170
vt 0.279524 0.390336
vt 0.251160 0.212392
vt 0.279524 0.206004
vt 0.298031 0.298170
vt 0.304275 0.383949
vt 0.253272 0.455582
vt 0.305948 0.467218
vt 0.253272 0.140758
vt 0.305948 0.129123
vt 0.304275 0.212392
vt 0.324811 0.455583
vt 0.324811 0.140758
vt 0.751679 0.212392
vt 0.753792 0.298170
vt 0.723316 0.298170
vt 0.723315 0.206004
vt 0.751680 0.383948
vt 0.723316 0.390336
vt 0.704809 0.298170
vt 0.698564 0.212392
vt 0.749567 0.140757
vt 0.696891 0.129123
vt 0.749568 0.455582
vt 0.696892 0.467217
vt 0.698565 0.383949
vt 0.678027 0.140758
vt 0.678028 0.455583
vt 0.635260 0.639287
vt 0.580811 0.615714
vt 0.587198 0.568190
vt 0.658833 0.615713
vt 0.658834 0.693735
vt 0.587200 0.687348
vt 0.501420 0.604080
vt 0.501420 0.561947
vt 0.593586 0.541178
vt 0.670468 0.604078
vt 0.702179 0.687346
vt 0.670470 0.773125
vt 0.593589 0.773126
vt 0.501421 0.680961
vt 0.422030 0.615716
vt 0.415642 0.568192
vt 0.716781 0.773125
vt 0.658836 0.852516
vt 0.587202 0.858905
vt 0.501422 0.773127
vt 0.415643 0.687350
vt 0.367582 0.639290
vt 0.344008 0.615717
vt 0.702181 0.858903
vt 0.635263 0.906964
vt 0.580815 0.930539
vt 0.501424 0.865293
vt 0.409256 0.773128
vt 0.344009 0.693739
vt 0.300664 0.687351
vt 0.332373 0.604082
vt 0.409254 0.541179
vt 0.658837 0.930538
vt 0.587203 0.973884
vt 0.501425 0.942174
vt 0.415645 0.858907
vt 0.332375 0.773129
vt 0.286064 0.773130
vt 0.670472 0.942172
vt 0.593591 0.988485
vt 0.501425 0.988486
vt 0.422034 0.930541
vt 0.344011 0.852520
vt 0.300666 0.858908
vt 0.415647 0.973886
vt 0.367586 0.906967
vt 0.344012 0.930542
vt 0.409259 0.988487
vt 0.332377 0.942176
vt 0.415641 0.503106
vt 0.367581 0.432009
vt 0.422029 0.455583
vt 0.344007 0.377561
vt 0.415641 0.383949
vt 0.501420 0.509350
vt 0.501420 0.467218
vt 0.332372 0.298170
vt 0.409254 0.298170
vt 0.501420 0.390336
vt 0.587198 0.503106
vt 0.580810 0.455583
vt 0.344007 0.218780
vt 0.415641 0.212392
vt 0.501420 0.298170
vt 0.587198 0.383949
vt 0.635258 0.432009
vt 0.367581 0.164332
vt 0.422029 0.140758
vt 0.501420 0.206004
vt 0.593586 0.298170
vt 0.658832 0.377561
vt 0.415641 0.093234
vt 0.501420 0.129123
vt 0.587198 0.212392
vt 0.670467 0.298170
vt 0.409253 0.071752
vt 0.501420 0.086990
vt 0.580810 0.140758
vt 0.658832 0.218780
vt 0.587198 0.093234
vt 0.635258 0.164331
vt 0.593586 0.071751
vt 0.501420 0.535649
vt 0.501419 0.060692
vt 0.501419 0.030216
vt 0.587198 0.032327
vt 0.415641 0.032328
vn 0.309497 0.938920 0.150469
vn 0.155358 0.973408 0.168346
vn 0.295095 0.862673 0.410748
vn 0.559910 0.778698 0.283071
vn -0.000000 0.983264 0.182186
vn -0.000000 0.888695 0.458499
vn 0.000000 0.000000 1.000000
vn 0.535340 -0.000001 0.844637
vn 0.861703 0.000128 0.507414
vn -0.155358 0.973408 0.168346
vn -0.295095 0.862673 0.410748
vn -0.309497 0.938920 0.150468
vn -0.559910 0.778699 0.283071
vn -0.861703 0.000124 0.507414
vn -0.535339 -0.000001 0.844637
vn -0.286659 -0.876678 0.386345
vn -0.000000 -0.900617 0.434613
vn -0.536554 -0.801236 0.264821
vn -0.214589 -0.971024 0.105182
vn -0.120910 -0.987579 0.100345
vn -0.000000 -0.993443 0.114331
vn 0.286658 -0.876678 0.386345
vn 0.536556 -0.801235 0.264820
vn 0.120910 -0.987579 0.100345
vn 0.214588 -0.971025 0.105182
vn 0.046016 -0.998658 0.023762
vn 0.194268 -0.979278 0.057220
vn 0.000000 -0.999927 0.012051
vn 0.000000 -1.000000 -0.000000
vn 0.022541 -0.999746 0.000000
vn 0.193161 -0.981167 0.000000
vn -0.046016 -0.998658 0.023762
vn -0.194268 -0.979278 0.057220
vn -0.193161 -0.981167 -0.000000
vn -0.022541 -0.999746 0.000000
vn -0.046016 -0.998658 -0.023762
vn 0.000000 -0.999927 -0.012051
vn -0.194268 -0.979278 -0.057220
vn -0.214589 -0.971024 -0.105182
vn -0.120910 -0.987579 -0.100345
vn -0.000000 -0.993443 -0.114331
vn 0.046016 -0.998658 -0.023762
vn 0.194269 -0.979278 -0.057220
vn 0.120910 -0.987579 -0.100345
vn 0.214588 -0.971025 -0.105182
vn 0.286658 -0.876678 -0.386345
vn 0.536555 -0.801236 -0.264820
vn -0.000000 -0.900617 -0.434613
vn 0.000000 0.000000 -1.000000
vn 0.535340 -0.000000 -0.844637
vn 0.861703 0.000128 -0.507414
vn -0.286658 -0.876678 -0.386345
vn -0.536555 -0.801236 -0.264820
vn -0.861703 0.000128 -0.507413
vn -0.535339 0.000000 -0.844637
vn -0.295096 0.862673 -0.410748
vn 0.000000 0.888695 -0.458499
vn -0.559910 0.778699 -0.283071
vn -0.309498 0.938920 -0.150470
vn -0.155359 0.973408 -0.168346
vn 0.000000 0.983264 -0.182186
vn 0.295094 0.862674 -0.410747
vn 0.559910 0.778699 -0.283070
vn 0.155358 0.973408 -0.168346
vn 0.309498 0.938920 -0.150470
vn 0.123606 0.990258 -0.064124
vn 0.315391 0.946052 -0.074259
vn 0.000000 0.997833 -0.065804
vn 0.000000 1.000000 0.000000
vn 0.121779 0.992557 -0.000000
vn 0.319344 0.947639 0.000000
vn -0.123606 0.990257 -0.064124
vn -0.315390 0.946052 -0.074259
vn -0.319343 0.947639 0.000000
vn -0.121779 0.992557 0.000000
vn -0.123606 0.990257 0.064124
vn 0.000000 0.997833 0.065804
vn -0.315390 0.946052 0.074259
vn 0.123606 0.990258 0.064124
vn 0.315391 0.946052 0.074259
vn -0.664824 0.736512 0.124733
vn -0.677044 0.735943 0.000000
vn -1.000000 0.000000 0.000000
vn -0.978636 -0.000001 0.205601
vn -0.664827 0.736510 -0.124733
vn -0.978636 -0.000002 -0.205601
vn -0.633224 -0.764482 -0.120808
vn -0.647343 -0.762199 -0.000000
vn -0.633225 -0.764482 0.120808
vn 0.664827 0.736510 -0.124733
vn 0.677046 0.735940 -0.000000
vn 1.000000 0.000000 0.000000
vn 0.978636 0.000000 -0.205600
vn 0.664828 0.736509 0.124733
vn 0.978636 0.000001 0.205600
vn 0.633227 -0.764480 0.120808
vn 0.647345 -0.762197 0.000000
vn 0.633225 -0.764481 -0.120808
s 1
g Rk_Long_lrg Long
usemtl initialShadingGroup
f 1/31/1 75/32/2 27/33/3 82/34/4
f 75/32/2 15/37/5 51/38/6 27/33/3
f 27/33/3 51/38/6 21/113/7 54/39/8
f 82/34/4 27/33/3 54/39/8 18/40/9
f 15/37/5 76/45/10 28/46/11 51/38/6
f 76/45/10 2/52/12 77/53/13 28/46/11
f 28/46/11 77/53/13 16/61/14 52/62/15
f 51/38/6 28/46/11 52/62/15 21/113/7
f 21/113/7 52/62/15 29/80/16 53/85/17
f 52/62/15 16/10/14 78/14/18 29/80/16
f 29/80/16 78/14/18 4/81/19 79/82/20
f 53/85/17 29/80/16 79/82/20 17/86/21
f 18/27/9 54/39/8 30/90/22 81/30/23
f 54/39/8 21/113/7 53/85/17 30/90/22
f 30/90/22 53/85/17 17/86/21 80/91/24
f 81/30/23 30/90/22 80/91/24 3/96/25
f 3/96/25 80/91/24 31/95/26 88/101/27
f 80/91/24 17/86/21 55/89/28 31/95/26
f 31/95/26 55/89/28 22/94/29 58/100/30
f 88/101/27 31/95/26 58/100/30 9/105/31
f 17/86/21 79/82/20 32/84/32 55/89/28
f 79/82/20 4/81/19 83/83/33 32/84/32
f 32/84/32 83/83/33 19/87/34 56/88/35
f 55/89/28 32/84/32 56/88/35 22/94/29
f 22/94/29 56/88/35 33/93/36 57/99/37
f 56/88/35 19/87/34 84/92/38 33/93/36
f 33/93/36 84/92/38 6/97/39 85/98/40
f 57/99/37 33/93/36 85/98/40 20/103/41
f 9/105/31 58/100/30 34/104/42 87/109/43
f 58/100/30 22/94/29 57/99/37 34/104/42
f 34/104/42 57/99/37 20/103/41 86/108/44
f 87/109/43 34/104/42 86/108/44 5/111/45
f 5/111/45 86/108/44 35/110/46 94/29/47
f 86/108/44 20/103/41 59/107/48 35/110/46
f 35/110/46 59/107/48 23/114/49 62/112/50
f 94/29/47 35/110/46 62/112/50 12/25/51
f 20/103/41 85/98/40 36/102/52 59/107/48
f 85/98/40 6/97/39 89/15/53 36/102/52
f 36/102/52 89/15/53 10/12/54 60/106/55
f 59/107/48 36/102/52 60/106/55 23/114/49
f 23/114/49 60/106/55 37/117/56 61/115/57
f 60/78/55 10/79/54 90/77/58 37/75/56
f 37/75/56 90/77/58 8/76/59 91/72/60
f 61/71/57 37/75/56 91/72/60 11/65/61
f 12/69/51 62/70/50 38/64/62 93/63/63
f 62/112/50 23/114/49 61/115/57 38/116/62
f 38/64/62 61/71/57 11/65/61 92/56/64
f 93/63/63 38/64/62 92/56/64 7/55/65
f 7/55/65 92/56/64 39/49/66 98/48/67
f 92/56/64 11/65/61 63/57/68 39/49/66
f 39/49/66 63/57/68 24/50/69 66/43/70
f 98/48/67 39/49/66 66/43/70 14/42/71
f 11/65/61 91/72/60 40/66/72 63/57/68
f 91/72/60 8/76/59 95/73/73 40/66/72
f 40/66/72 95/73/73 13/67/74 64/58/75
f 63/57/68 40/66/72 64/58/75 24/50/69
f 24/50/69 64/58/75 41/51/76 65/44/77
f 64/58/75 13/67/74 96/59/78 41/51/76
f 41/51/76 96/59/78 2/52/12 76/45/10
f 65/44/77 41/51/76 76/45/10 15/37/5
f 14/42/71 66/43/70 42/36/79 97/35/80
f 66/43/70 24/50/69 65/44/77 42/36/79
f 42/36/79 65/44/77 15/37/5 75/32/2
f 97/35/80 42/36/79 75/32/2 1/31/1
f 2/52/12 96/59/78 43/60/81 77/53/13
f 96/59/78 13/67/74 67/68/82 43/60/81
f 43/1/81 67/2/82 25/3/83 70/4/84
f 77/9/13 43/1/81 70/4/84 16/10/14
f 13/67/74 95/73/73 44/74/85 67/68/82
f 95/73/73 8/76/59 90/77/58 44/74/85
f 44/5/85 90/11/58 10/12/54 68/6/86
f 67/2/82 44/5/85 68/6/86 25/3/83
f 25/3/83 68/6/86 45/13/87 69/7/88
f 68/6/86 10/12/54 89/15/53 45/13/87
f 45/13/87 89/15/53 6/97/39 84/92/38
f 69/7/88 45/13/87 84/92/38 19/87/34
f 16/10/14 70/4/84 46/8/89 78/14/18
f 70/4/84 25/3/83 69/7/88 46/8/89
f 46/8/89 69/7/88 19/87/34 83/83/33
f 78/14/18 46/8/89 83/83/33 4/81/19
f 7/55/65 98/48/67 47/54/90 93/63/63
f 98/48/67 14/42/71 71/47/91 47/54/90
f 47/16/90 71/17/91 26/18/92 74/19/93
f 93/24/63 47/16/90 74/19/93 12/25/51
f 14/42/71 97/35/80 48/41/94 71/47/91
f 97/35/80 1/31/1 82/34/4 48/41/94
f 48/20/94 82/26/4 18/27/9 72/21/95
f 71/17/91 48/20/94 72/21/95 26/18/92
f 26/18/92 72/21/95 49/28/96 73/22/97
f 72/21/95 18/27/9 81/30/23 49/28/96
f 49/28/96 81/30/23 3/96/25 88/101/27
f 73/22/97 49/28/96 88/101/27 9/105/31
f 12/25/51 74/19/93 50/23/98 94/29/47
f 74/19/93 26/18/92 73/22/97 50/23/98
f 50/23/98 73/22/97 9/105/31 87/109/43
f 94/29/47 50/23/98 87/109/43 5/111/45
